<svg width="121" height="24" viewBox="0 0 121 24" fill="none" xmlns="http://www.w3.org/2000/svg">
<path d="M4.053 9.42764C4.053 9.98477 4.84003 10.4635 6.41409 10.864C6.96761 10.9859 7.46924 11.1338 7.91897 11.3079C8.3687 11.4646 8.81843 11.6997 9.26816 12.0131C9.73519 12.309 10.0984 12.7095 10.3579 13.2144C10.6174 13.7193 10.7471 14.3025 10.7471 14.9641C10.7471 16.3047 10.2455 17.3406 9.24222 18.0718C8.23897 18.7856 7.00221 19.1425 5.53193 19.1425C2.86813 19.1425 1.05191 18.1066 0.083252 16.0348L2.98921 14.3896C3.38705 15.5212 4.23462 16.0871 5.53193 16.0871C6.72545 16.0871 7.32221 15.7127 7.32221 14.9641C7.32221 14.407 6.53518 13.9282 4.96111 13.5277C4.373 13.3711 3.87138 13.2144 3.45624 13.0577C3.0411 12.901 2.59137 12.6746 2.10705 12.3787C1.62272 12.0653 1.25083 11.6736 0.991365 11.2035C0.749201 10.716 0.62812 10.1502 0.62812 9.50599C0.62812 8.21763 1.09515 7.20783 2.02921 6.47661C2.98056 5.72797 4.15679 5.35365 5.55787 5.35365C6.61302 5.35365 7.57302 5.59739 8.43789 6.08487C9.30276 6.55495 9.986 7.23395 10.4876 8.12187L7.63356 9.68879C7.21842 8.80087 6.52653 8.35691 5.55787 8.35691C5.12544 8.35691 4.76219 8.46137 4.46814 8.67029C4.19138 8.86181 4.053 9.11425 4.053 9.42764Z" fill="#373A4A"/>
<path d="M20.1126 5.35365C21.5483 5.35365 22.7159 5.83243 23.6153 6.78999C24.5494 7.76496 25.0164 9.08814 25.0164 10.7595V18.7769H21.6694V11.1774C21.6694 10.3243 21.4359 9.66268 20.9688 9.1926C20.5191 8.72252 19.8964 8.48749 19.1007 8.48749C18.2185 8.48749 17.518 8.76605 16.9991 9.32318C16.4975 9.86289 16.2466 10.6638 16.2466 11.7258V18.7769H12.8996V0.496191H16.2466V7.18172C17.0423 5.963 18.331 5.35365 20.1126 5.35365Z" fill="#373A4A"/>
<path d="M38.9274 17.1578C37.6128 18.481 35.9868 19.1425 34.0495 19.1425C32.1122 19.1425 30.4862 18.481 29.1716 17.1578C27.857 15.8346 27.1997 14.198 27.1997 12.2481C27.1997 10.3156 27.857 8.6877 29.1716 7.36453C30.5035 6.02394 32.1295 5.35365 34.0495 5.35365C35.9695 5.35365 37.5955 6.02394 38.9274 7.36453C40.2593 8.70511 40.9252 10.333 40.9252 12.2481C40.9252 14.1806 40.2593 15.8172 38.9274 17.1578ZM31.5327 14.8335C32.2073 15.5125 33.0463 15.852 34.0495 15.852C35.0527 15.852 35.8917 15.5125 36.5663 14.8335C37.2409 14.1545 37.5782 13.2927 37.5782 12.2481C37.5782 11.2035 37.2409 10.3417 36.5663 9.66268C35.8917 8.98368 35.0527 8.64418 34.0495 8.64418C33.0463 8.64418 32.2073 8.98368 31.5327 9.66268C30.8754 10.3591 30.5468 11.2209 30.5468 12.2481C30.5468 13.2753 30.8754 14.1371 31.5327 14.8335Z" fill="#373A4A"/>
<path d="M50.8301 5.35365C52.5772 5.35365 54.0647 6.02394 55.2929 7.36453C56.5383 8.70511 57.161 10.333 57.161 12.2481C57.161 14.198 56.5383 15.8346 55.2929 17.1578C54.082 18.481 52.5945 19.1425 50.8301 19.1425C49.0139 19.1425 47.6128 18.5071 46.6269 17.2361V24H43.2798V5.71926H46.6269V7.26007C47.6128 5.98912 49.0139 5.35365 50.8301 5.35365ZM47.6388 14.9119C48.3134 15.5909 49.1696 15.9304 50.2074 15.9304C51.2453 15.9304 52.1015 15.5909 52.7761 14.9119C53.468 14.2155 53.8139 13.3275 53.8139 12.2481C53.8139 11.1687 53.468 10.2894 52.7761 9.61045C52.1015 8.91404 51.2453 8.56583 50.2074 8.56583C49.1696 8.56583 48.3134 8.91404 47.6388 9.61045C46.9642 10.2894 46.6269 11.1687 46.6269 12.2481C46.6269 13.3275 46.9642 14.2155 47.6388 14.9119Z" fill="#373A4A"/>
<path d="M61.182 4.15234C60.6285 4.15234 60.1442 3.95212 59.729 3.55169C59.3312 3.13384 59.1323 2.64635 59.1323 2.08923C59.1323 1.5321 59.3312 1.04461 59.729 0.626768C60.1442 0.208923 60.6285 0 61.182 0C61.7528 0 62.2371 0.208923 62.635 0.626768C63.0501 1.04461 63.2577 1.5321 63.2577 2.08923C63.2577 2.64635 63.0501 3.13384 62.635 3.55169C62.2371 3.95212 61.7528 4.15234 61.182 4.15234ZM62.8685 18.7769H59.5215V5.71926H62.8685V18.7769Z" fill="#373A4A"/>
<path d="M71.225 19.1425C69.2185 19.1425 67.6444 18.4548 66.5028 17.0794C65.3784 15.6692 64.9806 13.9717 65.3093 11.9869C65.6033 10.0718 66.4768 8.48749 67.9298 7.23395C69.4174 5.98041 71.1298 5.35365 73.0671 5.35365C74.3817 5.35365 75.5147 5.65832 76.4661 6.26768C77.4347 6.87704 78.1266 7.70403 78.5418 8.74864L75.5061 10.3678C75.039 9.23613 74.1309 8.67029 72.7817 8.67029C71.7958 8.67029 70.8963 9.00109 70.0833 9.66268C69.3223 10.3069 68.8466 11.1425 68.6563 12.1697C68.4833 13.2144 68.665 14.0849 69.2012 14.7813C69.7374 15.4603 70.5071 15.7998 71.5104 15.7998C72.8596 15.7998 73.932 15.2165 74.7277 14.0501L77.4261 15.7998C76.7688 16.8792 75.8953 17.7062 74.8055 18.2807C73.7158 18.8553 72.5223 19.1425 71.225 19.1425Z" fill="#373A4A"/>
<path d="M90.3296 7.46899L90.6409 5.71926H93.988L91.7047 18.7769H88.3577L88.5653 17.5756C87.4409 18.6202 86.0052 19.1425 84.2582 19.1425C82.3209 19.1425 80.8679 18.42 79.8993 16.975C78.9479 15.5473 78.6539 13.8672 79.0171 11.9347C79.363 10.0718 80.1933 8.5136 81.5079 7.26007C82.8398 5.98912 84.4485 5.35365 86.3339 5.35365C88.1674 5.35365 89.4993 6.05876 90.3296 7.46899ZM85.296 15.9304C86.2993 15.9304 87.1901 15.6083 87.9685 14.9641C88.7469 14.3199 89.2485 13.4842 89.4734 12.457L89.5253 12.0392C89.6636 10.9946 89.4474 10.1589 88.8766 9.5321C88.3058 8.88792 87.5188 8.56583 86.5155 8.56583C85.4777 8.56583 84.5696 8.89663 83.7912 9.55822C83.0301 10.2198 82.5544 11.1077 82.3641 12.222C82.1739 13.3188 82.3555 14.2155 82.909 14.9119C83.4625 15.5909 84.2582 15.9304 85.296 15.9304Z" fill="#373A4A"/>
<path d="M100.395 5.71926L100.032 7.80849C100.966 6.20675 102.419 5.42329 104.391 5.45811L103.742 9.21872C102.791 9.06202 101.866 9.25354 100.966 9.79325C100.084 10.3156 99.5046 11.1861 99.2279 12.4048L98.1122 18.7769H94.7651L97.0484 5.71926H100.395Z" fill="#373A4A"/>
<path d="M115.517 7.52122L116.736 0.496191H120.083L116.892 18.7769H113.545L113.752 17.5234C112.628 18.6028 111.175 19.1425 109.393 19.1425C107.456 19.1425 106.003 18.42 105.035 16.975C104.083 15.5473 103.789 13.8672 104.152 11.9347C104.498 10.0718 105.329 8.5136 106.643 7.26007C107.975 5.98912 109.584 5.35365 111.469 5.35365C113.337 5.35365 114.686 6.07617 115.517 7.52122ZM110.457 15.9304C111.512 15.9304 112.429 15.5909 113.208 14.9119C114.003 14.2329 114.488 13.3536 114.661 12.2742C114.868 11.16 114.686 10.2633 114.116 9.58433C113.562 8.90533 112.758 8.56583 111.703 8.56583C110.665 8.56583 109.748 8.89663 108.952 9.55822C108.174 10.2198 107.69 11.1077 107.499 12.222C107.309 13.3188 107.491 14.2155 108.044 14.9119C108.615 15.5909 109.419 15.9304 110.457 15.9304Z" fill="#373A4A"/>
</svg>
